# xmcd
#
# Track frame offsets: 
#        150
#        23964
#        40718
#        68632
#        91124
#        107220
#        126633
#        140117
#        156902
#        173075
#        195756
#        230193
#        250796
#
# Disc length: 3581 seconds
#
# Revision: 0
# Processed by: cddbd v1.4PL0 Copyright (c) Steve Scherf et al.
# Submitted via: ExactAudioCopy v0.90b4
#
DISCID=b00dfb0d
DTITLE=Shania Twain - Live In Dallas [CD1]
DYEAR=1999
DGENRE=Country
TTITLE0=Man! I Feel Like A Woman!
TTITLE1=Honey, I'm Home
TTITLE2=You Win My Love
TTITLE3=Whose Bed Have Your Boots Been Under ?
TTITLE4=You're Still The One
TTITLE5=I Won't Leave You Lonely
TTITLE6=Come On Over
TTITLE7=Love Gets Me Every Time
TTITLE8=I'm Holdin' On To Love (To Save My Life)
TTITLE9=When
TTITLE10=Medley: Home Ain't Where His Heart Is, The Woman In Me, You'v
TTITLE10=e Got A Way
TTITLE11=That Don't Impress Me Much
TTITLE12=If It Don't Take Two
EXTD=
EXTT0=
EXTT1=
EXTT2=
EXTT3=
EXTT4=
EXTT5=
EXTT6=
EXTT7=
EXTT8=
EXTT9=
EXTT10=
EXTT11=
EXTT12=
PLAYORDER=
